
 
http://www.imdb.com/title/tt1300854/


[b]Marvel's "Iron Man 3" pits brash-but-brilliant industrialist Tony Stark/Iron Man against an enemy whose reach knows no bounds. When Stark finds his personal world destroyed at his enemy's hands, he embarks on a harrowing quest to find those responsible. This journey, at every turn, will test his mettle. With his back against the wall, Stark is left to survive by his own devices, relying on his ingenuity and instincts to protect those closest to him. As he fights his way back, Stark discovers the answer to the question that has secretly haunted him: does the man make the suit or does the suit make the man? 



Director:
 Shane Black 

Writers:
 Drew Pearce (screenplay), Shane Black (screenplay)

Stars:
 Robert Downey Jr., Gwyneth Paltrow, Guy Pearce

Genres:
  Action |  Sci-Fi |  Thriller 

Country:
 USA | China 

Language:
 English 
[/b]




Format                                   : AVI
 Format/Info                              : Audio Video Interleave
 Format profile                           : OpenDML
 Format settings                          : rec
 File size                                : 2.05 GiB
 Duration                                 : 2h 13mn
 Overall bit rate                         : 2 199 Kbps
 Writing application                      : AVI-Mux GUI 1.17.8.3, Feb 16 201019:42:50

 Video
 ID                                       : 0
 Format                                   : MPEG-4 Visual
 Format profile                           : Advanced Simple@L5
 Format settings, BVOP                    : 2
 Format settings, QPel                    : No
 Format settings, GMC                     : No warppoints
 Format settings, Matrix                  : Default (MPEG)
 Muxing mode                              : Packed bitstream
 Codec ID                                 : XVID
 Codec ID/Hint                            : XviD
 Duration                                 : 2h 13mn
 Bit rate                                 : 2 000 Kbps
 Width                                    : 720 pixels
 Height                                   : 304 pixels
 Display aspect ratio                     : 2.35:1
 Frame rate                               : 29.970 fps
 Color space                              : YUV
 Chroma subsampling                       : 4:2:0
 Bit depth                                : 8 bits
 Scan type                                : Progressive
 Compression mode                         : Lossy
 Bits/(Pixel*Frame)                       : 0.305
 Stream size                              : 1.86 GiB (91%)
 Writing library                          : XviD 73

 Audio
 ID                                       : 1
 Format                                   : AC-3
 Format/Info                              : Audio Coding 3
 Mode extension                           : CM (complete main)
 Format settings, Endianness              : Big
 Codec ID                                 : 2000
 Duration                                 : 2h 13mn
 Bit rate mode                            : Constant
 Bit rate                                 : 192 Kbps
 Channel(s)                               : 2 channels
 Channel positions                        : Front: L R
 Sampling rate                            : 48.0 KHz
 Bit depth                                : 16 bits
 Compression mode                         : Lossy
 Stream size                              : 183 MiB (9%)
 Alignment                                : Aligned on interleaves
 Interleave, duration                     : 64 ms (1.92 video frames)
 Interleave, preload duration             : 192 ms
 Title                                    : Iron Man 2013 CAM FULL-AUDIO

 NOTES: 

 Most is in CAM english audio and rest is in some other foriegn language




    	http://addpix.net/viewer.php?file=23716502448547080831.jpg
    	http://addpix.net/viewer.php?file=80737025808753471844.jpg
    	http://addpix.net/viewer.php?file=57154485940067185820.jpg
    	http://addpix.net/viewer.php?file=71692212351843941007.jpg
    	http://addpix.net/viewer.php?file=92773144410567656264.jpg
    	http://addpix.net/viewer.php?file=83000004677749238076.jpg